<svg 
    width="1024" 
    height="1024" 
    viewBox="0 0 24 24" 
    fill="none" 
    xmlns="http://www.w3.org/2000/svg">

    <!-- Background with the original cream color -->
    <rect width="24" height="24" rx="5" fill="#FDF6E3" />

    <!-- Open book icon -->
    <path
        d="M12 6.5c0 0-3-2.5-6-2.5S2 5.5 2 5.5v11c0 0 1.5-1.5 4-1.5s4.5 1.5 6 1.5c1.5 0 3.5-1.5 6-1.5s4 1.5 4 1.5v-11c0 0-1-1.5-4-1.5s-6 2.5-6 2.5z"
        stroke="#A8D5BA" stroke-width="1.5" fill="none"
    />
    
    <!-- Left page fold -->
    <path
        d="M6 4v11c0 0 1.5-1 4-1s2 1 2 1"
        stroke="#A8D5BA" stroke-width="1.5"
    />
    
    <!-- Right page fold -->
    <path
        d="M18 4v11c0 0-1.5-1-4-1s-2 1-2 1"
        stroke="#A8D5BA" stroke-width="1.5"
    />
    
    <!-- Center binding detail -->
    <path
        d="M12 6.5v11"
        stroke="#A8D5BA" stroke-width="1.5"
    />

</svg>
